<svg id="VF_-_blanc" data-name="VF - blanc" xmlns="http://www.w3.org/2000/svg" viewBox="0 0 4270.31 4266.81"><defs><style>.cls-1{fill:#fff;}.cls-2{fill:#d7c378;}.cls-3{fill:none;}.cls-4{fill:#0685c8;}.cls-5{fill:#f9b130;}.cls-6{fill:#060606;}.cls-7{fill:#06a854;}.cls-8{fill:#e83a52;}</style></defs><path class="cls-1" d="M1047.6,3969.2,1170,3942l1278,171,1278-531,162-1188L3492,1215,2583,270l-234-99-126-45-99,18L693,1296,148.05,1937.63c-8.69,10.23-13.31,23-15.09,36.28C108,2160-27,3186,976.51,3951.28,997,3966.93,1022.41,3974.8,1047.6,3969.2Z" transform="translate(-113.1 -106)"/><path class="cls-2" d="M1429.89,3083.44c-1.31-21.33-11.66-37.35-29.81-48.26-11.19-6.72-23.53-8.26-36.37-7-17.87,1.8-31.93,10.08-42,24.84-7.65,11.16-10,23.89-10,37.18q0,29.51,0,59v3.17h2.91c15.94.15,31.81,1.15,47.47,4.41,23.3,4.87,44.49,14,62.15,30.38a64.46,64.46,0,0,1,5,5.86l1.07-.69v-3.24q0-40.12,0-80.25C1430.25,3100.4,1430.4,3091.9,1429.89,3083.44Z" transform="translate(-113.1 -106)"/><path class="cls-2" d="M1823.86,3076.75c-2.11-20.8-12.88-35.58-31.34-44.91-12.56-6.35-26.13-8.1-40-8.16-16.11-.06-32.23,0-48.34,0-.92,0-1.84.08-2.88.13v169.31c1-.84,1.73-1.45,2.47-2,6.12-4.45,11.89-9.54,18.45-13.2,14.37-8,29.12-15.37,43.76-22.91,10.35-5.32,20.89-10.28,30.27-17.31,10.42-7.81,19.07-17,23.89-29.37C1824.14,3098.15,1825,3087.55,1823.86,3076.75Z" transform="translate(-113.1 -106)"/><path class="cls-2" d="M2092.17,3429.65c-23.67-2.77-46.45,1.39-67.31,13.15-41.26,23.26-63.93,59.39-63.16,105.3.09,5.83.68,10.7,1.21,15.56a116.66,116.66,0,0,0,27.26,63.31c19.39,23.11,44.16,37,74.21,40.94,24.94,3.3,48.83-.37,70.89-12.64,33.66-18.7,54.47-47.08,61.33-85.11,4.68-25.89,1.61-51.11-10.42-74.56C2166.52,3457.28,2135.21,3434.7,2092.17,3429.65Z" transform="translate(-113.1 -106)"/><path class="cls-2" d="M2331.45,361.1c-8.84.37-40.17,12.08-45,16.19-5.33,4.49-5.42,7.28,1.48,10.34C2306.67,396,2328.15,383.58,2331.45,361.1Z" transform="translate(-113.1 -106)"/><path class="cls-2" d="M1343.26,2773.65c3.71-1.46,6.83-2.56,9.39-3.29A44.65,44.65,0,0,0,1343.26,2773.65Z" transform="translate(-113.1 -106)"/><path class="cls-2" d="M2250,106C1161,106,262.63,921.9,132.73,1975.74c61.41-29.38,82.69-75.58,151.27-83.74,9.16-1.09,34.51-13.36,41-20,43.37-44.36,90.29-70,127.16-121.68,42-69.94,99.54-127.68,169.2-173.66,80.18-52.91,167.42-82,263.3-85.07,90.22-2.87,175.39,17.19,256.38,56.74,38.41,18.76,77,37.21,116.45,53.75,53.48,22.46,111.2,24.53,167.85,30.41,84.56,8.78,149.31,49.48,196.26,119.09,20.68,30.65,39,62.86,59.81,96.56a232.73,232.73,0,0,1,108,4.14c22.42,6.31,45.14,13.43,65.73,24.06,46.89,24.24,97.52,30.44,148.65,35.64,3.4.35,6.57.51,10,1.78,26.43,9.74,47.05,10,71.37,8.31,41.37-2.89,83.44-1.66,124-8.93C2359,1886.28,2492,1742.77,2451.4,1558.56c-15.41-70-46.19-133.38-78.65-196.28-36.09-70-73.84-139.13-91.58-216.85-18-78.8-11.55-156.41,11.35-233.08,22.37-74.93,58.17-143.65,101.84-208l2.65-3.92-45.86-90.09a15.93,15.93,0,0,1,7.76-21.79l75.41-33.29a15.92,15.92,0,0,1,21.33,9l19.5,51.68C2490.64,608.25,2509,604,2532,604c18,0,25.2,7.8,32,15,17,18,33,40,29,87-1.81,21.28-1,54.71-8.88,74.53-2.2,5.56-12.73,11.6-18.94,11.11-9-.72-16.13,1.43-21.71,5.36l43.26,114.72a36.71,36.71,0,0,1-20.52,47c-17.87,7.28-38.34-1.21-47.09-18.4l-20.75-40.77c-1.23,4.55-2.37,9.11-3.36,13.7-20.35,94.19,2.09,182.59,46,265.92,28.95,55,60.84,108.43,92.13,162.14,54,92.7,85.9,192.17,94.31,299.2,9.52,121.15-8.82,237.71-57.16,349.33-43.84,101.22-108.72,186.69-193.17,257.56a715.16,715.16,0,0,1-179.81,110.79c8.73.67,12.56,1.34,16.35,1.2,131.24-5,258-30.69,378.28-84.29,37.42-16.67,73.27-36.84,110.05-55,8.07-4,17-8.4,25.57-8.54,7.31-.11,17.57,3.76,21.28,9.35s3.76,17.21.22,23.05a71.67,71.67,0,0,1-23.89,23.56c-81.43,48.34-162.11,98.13-245.31,143.25-121.19,65.72-247.92,118.18-383.6,147-110.16,23.39-220.9,31.7-333,17.84-4.79-.6-12.33.4-14.63,3.55-19.93,27.33-46.48,27.36-75.27,19.89-3.3-.85-6.57-1.81-9.88-2.65-.46-.12-1,.16-3.8.65,16.3,18.55,33.17,35.26,47.1,54.15,21.88,29.65,46.11,58.76,61.44,91.77,20.66,44.5,17.39,90.24-17.37,129.36-13.65,15.37-30.8,23.31-51.72,20.89-24.38-2.82-36.69-15.68-38.81-39.9-3.71-42.27-11.75-51.52-53.34-63.42-26.89-7.69-54.25-14.39-80.17-24.66-35.47-14.06-64.07-38.67-86.76-64.22-50,20.27-98.33,40.13-146.92,59.38-10.54,4.17-21.79,7.77-33,8.78-.48,0-.94.11-1.42.17,2.73.18,3,2.08.68,6-1.76,3-18.94,19.46-50.54,41.33-40.14,65.85-93.88,126.48-111.12,201.12-.91,3.93-1.73,14.22,1.59,27.61,16.14,71.09-24.6,196.89-11.47,268.52,14.48,79-.42,165.94-13.81,245.34-19.08,113.16-93,185.68-145.52,287.08-20.79,40.14-33.41,76.6-43.5,111.16,353.94,261,791.44,415.32,1265,415.32,1178.25,0,2133.41-955.16,2133.41-2133.41S3428.25,106,2250,106Zm-50.42,263.67c-19.83-26.71-20.59-56.54-20.13-69.14,15.06,15.41,30.7,29.09,53.73,28.37-1-1.58-2.38-3.93-4.08-6.77-20.83-34.85-32.13-52-35.46-63.94-7.15-25.68-7.34-53.07-.89-82.07A125.72,125.72,0,0,1,2207.63,139c7.24,8.32,6.19,17.88,10.78,25.55,15.93,26.66,40.38,40.37,69.32,47.69,13.5,3.41,26.53,7.68,37.34,16.9,30.17,25.77,38.87,58,28.16,97.06,13.74-6.33,17.39-19.34,25-31.81a106.75,106.75,0,0,1-.43,47.32c-9.78,40.53-29.44,58.64-49.21,67.16C2272.07,433.21,2226.52,406,2199.58,369.67ZM2458.79,522a15.91,15.91,0,0,1-9.49,14.44l-113,49.89a16,16,0,0,1-17-2.61l-19.52-17.16a15.92,15.92,0,0,1,4.08-26.53l132.72-58.6A15.92,15.92,0,0,1,2459,496.1Zm.69-85.31a15.9,15.9,0,0,1-9.49,14.43l-178,78.62a16,16,0,0,1-17-2.61l-21.58-19a15.93,15.93,0,0,1,4.09-26.53l199.86-88.24a15.93,15.93,0,0,1,22.36,14.7ZM1481.3,3306.92v3.14h-51c0-1.73,0-3.46,0-5.18,0-12.43-.68-24.78-4.15-36.8-10.24-35.47-33.63-57-69.43-65.25-14.72-3.39-29.69-3.55-45-3.31V3310h-51c0-.95-.13-1.94-.13-2.93q0-108.36,0-216.72c0-19.61,3.17-38.58,12.28-56.21,13.78-26.62,35.26-44,64-51.78,27.38-7.43,54.67-6.61,81,4.51,30.6,12.93,50,36,59,67.95,3.3,11.75,4.36,23.81,4.36,36Q1481.34,3198.85,1481.3,3306.92Zm569.09-329.42c-1.26,33.45-2.51,66.76-3.77,100.23h-36.13q-2.12-50-4.25-100.23Zm-260.76,738.05h-229.9l16.31-20.49q65.49-82.32,130.94-164.66c7-8.87,13.63-18.14,17.36-29,5.56-16.14,6.46-32.27-3.6-47.06-11.82-17.37-28.54-26.28-49.7-25.93-16.7.27-31.15,6.26-42.9,18.32-9.44,9.7-13.55,21.43-13.26,34.89.36,16.4,7,30,18.26,41.54a37,37,0,0,0,3.87,3.06l-28.71,37.4a110.45,110.45,0,0,1-19-17.67c-22.59-26.88-29.21-57.62-20.58-91.35,5.66-22.14,19.15-39.25,37.83-52.25a108.64,108.64,0,0,1,54.58-19.14c22.22-1.73,43.67,1.12,63.73,11.32,24.61,12.52,42.44,31.27,49.89,58.27,7.07,25.61,4.64,50.6-8.29,74.12-9.37,17-21.53,32.12-33.6,47.25l-73.82,92.53c-.47.59-.89,1.2-1.75,2.37H1786c3.64,0,3.65,0,3.65,3.64v42.81Zm96.28-425.62c-.08,6.71,0,13.42,0,20.29h-50.26c0-1,0-2,0-3-.16-10.23.17-20.5-.57-30.69-2.45-33.77-27-61-64.18-61.71-17-.32-32.66,3.74-46,14.83a62,62,0,0,0-22.57,42c-1.27,11.54-.87,23.27-1.21,34.91,0,1.2,0,2.41,0,3.75h-49v-332.8h2.42c34.78,0,69.57-.43,104.33.2,27.16.49,52.88,7,75.46,23,22.75,16.1,36.66,37.84,39.94,65.66,2.53,21.42.42,42.38-9.47,62-7.24,14.38-18,25.76-30.79,35.17-6.63,4.86-13.77,9-20.67,13.51-.79.51-1.59,1-2.65,1.62,4.4,1.65,8.6,3,12.62,4.76,32.15,14.11,51.45,38.86,59.65,72.64C1885.65,3267.16,1886.06,3278.53,1885.91,3289.93ZM2249,3562c-5.47,59.31-35.11,103.42-86.48,132.9-25.68,14.73-53.76,20.79-83.29,20.63-42.89-.23-80.72-14.06-112.78-42.56-28.37-25.21-46.23-56.66-52.77-94.18a216.53,216.53,0,0,1-3-27.18c-2.5-64.29,28.54-112,80.8-145,21-13.28,44.41-20.45,69.18-23,35.9-3.66,70.05,2.08,101.86,19.44,34.45,18.8,59,46.74,74.53,82.64A154.27,154.27,0,0,1,2249,3562Zm8.29-251.73h-59.95c0-78.13.06-147,.06-225.18,19.9,0,39.75-9.2,59.89-9.2Zm0-290.34c-20.06,0-39.83,10.27-59.89,10.27,0-14.13-.06-38.53-.06-52.68h59.95Zm342.17,695.6H2369.53l16.31-20.48q65.47-82.32,130.93-164.65c7-8.86,13.63-18.13,17.36-29,5.56-16.13,6.45-32.26-3.61-47-11.82-17.37-28.53-26.29-49.69-25.94-16.7.28-31.15,6.26-42.89,18.32-9.45,9.71-13.55,21.43-13.26,34.89.36,16.39,7,30,18.25,41.53a38.62,38.62,0,0,0,3.88,3.07l-28.71,37.4a110.9,110.9,0,0,1-19-17.68c-22.59-26.88-29.2-57.61-20.58-91.34,5.67-22.13,19.15-39.25,37.82-52.24a108.68,108.68,0,0,1,54.59-19.14c22.21-1.73,43.66,1.12,63.71,11.32,24.61,12.52,42.44,31.27,49.89,58.26,7.07,25.61,4.64,50.59-8.29,74.12-9.37,17-21.53,32.11-33.6,47.24q-36.91,46.26-73.81,92.53c-.47.58-.89,1.19-1.75,2.36h128.65c3.65,0,3.65,0,3.66,3.64v42.8Zm79-684.92c-18.63,3.07-34.64,11.27-47.36,25.39a84.91,84.91,0,0,0-20.81,43.47,185.14,185.14,0,0,0-2.45,28.52c-.32,26.24-.15,52.5-.05,78.75,0,2.79-.84,3.46-3.53,3.44-14.3-.13-28.61-.06-42.92-.06h-3.54v-3.85c0-28.81.23-57.63-.19-86.43-.28-19.15-5-37.29-15.48-53.6-12.39-19.2-30.15-30.51-52.33-35-7-1.41-14.18-1.9-21.68-2.85v281.76H2417.8V2978c.33-.15.49-.3.66-.3,26.72-.38,53.43-.68,79.49,6.83,30.36,8.76,56.38,24.24,76.49,49,2.86,3.52,5.38,7.31,8.15,11.12a3.44,3.44,0,0,0,.68-.61c18.44-28.64,44.73-46.73,76.73-57.2,19.54-6.39,39.63-9,60.1-9.15,8.9-.06,17.79,0,26.92,0v332.57h-49.48V3028.69C2690.92,3029.32,2684.6,3029.57,2678.4,3030.59Zm261.87,684.65h-43.48v-3.38c-.11-14.44,0-28.89-.4-43.32-.6-19.5-10.29-34-26.16-44.55-13-8.62-27.54-13.89-42.1-19.15-16.32-5.9-32.61-11.86-47.51-21-26.67-16.37-41.79-40.27-45.95-71.06a238.28,238.28,0,0,1-1.9-30.1c-.24-32.3-.09-64.61-.09-96.92v-3.81H2778v3.6c0,34-.14,68,.11,102,.11,14.8,2.86,29.05,11.45,41.66,6.83,10,16,17.23,26.8,22.34,8.82,4.17,17.82,8,26.89,11.57,18.11,7.2,36.92,12.84,53.53,24.87V3472.24h43.5Zm188.76-408v3.14H3078c0-1.74,0-3.46,0-5.19,0-12.43-.68-24.8-4.16-36.82-10.24-35.5-33.65-57-69.48-65.3-14.73-3.4-29.71-3.56-45-3.31v110.54h-51c0-.94-.13-1.93-.13-2.92q0-108.45,0-216.89c0-19.62,3.17-38.61,12.29-56.25,13.78-26.64,35.29-44,64.1-51.82,27.39-7.44,54.7-6.62,81,4.51,30.63,12.94,50,36.06,59,68,3.3,11.76,4.36,23.82,4.37,36Q3129.07,3199,3129,3307.2Zm477.32.23c0,.82-.09,1.65-.15,2.66h-45v-61.52c-3.88,5-7.15,9.53-10.71,13.79-22,26.29-49.65,43.6-83.39,49.37-65,11.12-119.68-8.5-162.83-58.37-20.39-23.57-32.19-51.5-36.3-82.48-5.35-40.29,1.26-78.3,23-113,26-41.45,63.13-67.49,111.19-77.11,34.72-6.95,69-4.49,101.84,9.14,50,20.78,82.8,57.5,98,109.66.78,2.69,1.35,5.44,2,8.16a5.72,5.72,0,0,1,0,1.05h-2.53c-15.06,0-30.12,0-45.17,0-2,0-2.9-.49-3.56-2.49-14.41-43.52-44.88-70.44-88.55-81.24-37.67-9.33-72.61-.79-102.84,23.95-22.91,18.74-37.67,42.89-43.48,72-5.61,28.07-2.34,55.22,10.77,80.94,12,23.58,29.4,42,52.77,54.53a116.62,116.62,0,0,0,49.3,13.48c17.46,1,34.42-1.22,50.55-7.78,37.41-15.22,61.83-42.47,73.51-81.14a39,39,0,0,0,1.59-6.23c.33-2.41,1.32-3.19,3.81-3.17,14.41.13,28.81.11,43.21,0,2.35,0,3,.71,3,3Q3606.31,3241.07,3606.35,3307.43Z" transform="translate(-113.1 -106)"/><path class="cls-2" d="M3077.58,3083.55c-1.31-21.36-11.66-37.38-29.83-48.3-11.2-6.73-23.55-8.27-36.39-7-17.89,1.79-32,10.08-42.08,24.85-7.65,11.17-10,23.91-10,37.21q0,29.52,0,59v3.17h2.91c16,.15,31.83,1.14,47.5,4.41,23.32,4.87,44.53,14,62.2,30.4a64.6,64.6,0,0,1,5,5.87c.36-.23.72-.46,1.07-.7v-3.24q0-40.16,0-80.31C3078,3100.51,3078.1,3092,3077.58,3083.55Z" transform="translate(-113.1 -106)"/><path class="cls-3" d="M1065.18,3083.39q-.89-27.75-24.14-42.94c-11.3-7.37-24-10.26-37.21-10.48-17.23-.29-34.48-.12-51.72-.13a18.35,18.35,0,0,0-2.16.25v158.65c4.37-3.49,8.31-6.89,12.49-9.94,12.31-9,26.09-15.3,39.54-22.24,10.76-5.54,21.56-11,32-17.12,9.49-5.51,17.72-12.62,23.51-22.22C1063.81,3106.77,1065.56,3095.32,1065.18,3083.39Z" transform="translate(-113.1 -106)"/><path class="cls-2" d="M1343.26,2773.65c-10.16,4.92-17.45,13.42-23.58,24.46-3.46,6.24-7.09,12.42-10.83,18.55,31.6-21.87,48.78-38.36,50.54-41.33,2.31-3.92,2-5.82-.68-6a52.75,52.75,0,0,0-6.06,1C1350.09,2771.09,1347,2772.19,1343.26,2773.65Z" transform="translate(-113.1 -106)"/><path class="cls-2" d="M1352.65,2770.36a52.75,52.75,0,0,1,6.06-1A19.34,19.34,0,0,0,1352.65,2770.36Z" transform="translate(-113.1 -106)"/><path class="cls-2" d="M1343.26,2773.65c-38.47,15.15-138,67.54-281.71,117.4C894.61,2949,486,2779,515,2423c4-49,12.22-120,30-173,53.35-159.08,134-288,137-296,1-2.81,10-38-43,23-17.4,20-43,65-67,101-30,45-66,114-80,159-16.66,53.55-18.3,85-23,143-15,185,68.26,362.45,205,452,113,74,277,125,397,92.56,109.87-29.72,190.27-74.93,237.89-107.9,3.74-6.13,7.37-12.31,10.83-18.55C1325.81,2787.07,1333.1,2778.57,1343.26,2773.65Z" transform="translate(-113.1 -106)"/><path class="cls-2" d="M1383.84,1944.87c-145.77-50.32-145,133.2-145,133.2S1481.29,1978.51,1383.84,1944.87Z" transform="translate(-113.1 -106)"/><path class="cls-3" d="M2896.77,3472.24V3588c-16.61-12-35.42-17.67-53.53-24.87-9.07-3.6-18.07-7.4-26.89-11.57-10.79-5.11-20-12.3-26.8-22.34-8.59-12.61-11.34-26.86-11.45-41.66-.25-34-.1-68-.11-102v-3.6h-45.31v3.81c0,32.31-.15,64.62.09,96.92a238.28,238.28,0,0,0,1.9,30.1c4.16,30.79,19.28,54.69,45.95,71.06,14.9,9.16,31.19,15.12,47.51,21,14.56,5.26,29.13,10.53,42.1,19.15,15.87,10.54,25.56,25.05,26.16,44.55.44,14.43.29,28.88.4,43.32v3.38h43.48v-243Z" transform="translate(-113.1 -106)"/><path class="cls-3" d="M2599.41,3672.71c0-3.64,0-3.64-3.66-3.64H2467.1c.86-1.17,1.28-1.78,1.75-2.36q36.9-46.27,73.81-92.53c12.07-15.13,24.23-30.21,33.6-47.24,12.93-23.53,15.36-48.51,8.29-74.12-7.45-27-25.28-45.74-49.89-58.26-20-10.2-41.5-13-63.71-11.32a108.68,108.68,0,0,0-54.59,19.14c-18.67,13-32.15,30.11-37.82,52.24-8.62,33.73-2,64.46,20.58,91.34a110.9,110.9,0,0,0,19,17.68l28.71-37.4a38.62,38.62,0,0,1-3.88-3.07c-11.26-11.55-17.89-25.14-18.25-41.53-.29-13.46,3.81-25.18,13.26-34.89,11.74-12.06,26.19-18,42.89-18.32,21.16-.35,37.87,8.57,49.69,25.94,10.06,14.78,9.17,30.91,3.61,47-3.73,10.84-10.33,20.11-17.36,29q-65.39,82.39-130.93,164.65l-16.31,20.48h229.88v-42.8Z" transform="translate(-113.1 -106)"/><path class="cls-3" d="M2092.17,3429.65c-23.67-2.77-46.45,1.39-67.31,13.15-41.26,23.26-63.93,59.39-63.16,105.3.09,5.83.68,10.7,1.21,15.56a116.66,116.66,0,0,0,27.26,63.31c19.39,23.11,44.16,37,74.21,40.94,24.94,3.3,48.83-.37,70.89-12.64,33.66-18.7,54.47-47.08,61.33-85.11,4.68-25.89,1.61-51.11-10.42-74.56C2166.52,3457.28,2135.21,3434.7,2092.17,3429.65Z" transform="translate(-113.1 -106)"/><path class="cls-3" d="M2237,3485.68c-15.52-35.9-40.08-63.84-74.53-82.64-31.81-17.36-66-23.1-101.86-19.44-24.77,2.52-48.14,9.69-69.18,23-52.26,33-83.3,80.73-80.8,145a216.53,216.53,0,0,0,3,27.18c6.54,37.52,24.4,69,52.77,94.18,32.06,28.5,69.89,42.33,112.78,42.56,29.53.16,57.61-5.9,83.29-20.63,51.37-29.48,81-73.59,86.48-132.9A154.27,154.27,0,0,0,2237,3485.68Zm-40.39,84.48c-6.86,38-27.67,66.41-61.33,85.11-22.06,12.27-45.95,15.94-70.89,12.64-30.05-4-54.82-17.83-74.21-40.94a116.66,116.66,0,0,1-27.26-63.31c-.53-4.86-1.12-9.73-1.21-15.56-.77-45.91,21.9-82,63.16-105.3,20.86-11.76,43.64-15.92,67.31-13.15,43,5,74.35,27.63,94,65.95C2198.21,3519.05,2201.28,3544.27,2196.6,3570.16Z" transform="translate(-113.1 -106)"/><path class="cls-3" d="M1789.63,3672.74c0-3.64,0-3.64-3.65-3.64H1657.31c.86-1.17,1.28-1.78,1.75-2.37l73.82-92.53c12.07-15.13,24.23-30.21,33.6-47.25,12.93-23.52,15.36-48.51,8.29-74.12-7.45-27-25.28-45.75-49.89-58.27-20.06-10.2-41.51-13-63.73-11.32a108.64,108.64,0,0,0-54.58,19.14c-18.68,13-32.17,30.11-37.83,52.25-8.63,33.73-2,64.47,20.58,91.35a110.45,110.45,0,0,0,19,17.67l28.71-37.4a37,37,0,0,1-3.87-3.06c-11.27-11.56-17.9-25.14-18.26-41.54-.29-13.46,3.82-25.19,13.26-34.89,11.75-12.06,26.2-18.05,42.9-18.32,21.16-.35,37.88,8.56,49.7,25.93,10.06,14.79,9.16,30.92,3.6,47.06-3.73,10.83-10.32,20.1-17.36,29Q1641.6,3612.8,1576,3695.06l-16.31,20.49h229.9v-42.81Z" transform="translate(-113.1 -106)"/><path class="cls-3" d="M3603.41,3171.69c-14.4.09-28.8.11-43.21,0-2.49,0-3.48.76-3.81,3.17a39,39,0,0,1-1.59,6.23c-11.68,38.67-36.1,65.92-73.51,81.14-16.13,6.56-33.09,8.77-50.55,7.78a116.62,116.62,0,0,1-49.3-13.48c-23.37-12.56-40.75-31-52.77-54.53-13.11-25.72-16.38-52.87-10.77-80.94,5.81-29.09,20.57-53.24,43.48-72,30.23-24.74,65.17-33.28,102.84-23.95,43.67,10.8,74.14,37.72,88.55,81.24.66,2,1.59,2.5,3.56,2.49,15.05-.07,30.11,0,45.17,0H3604a5.72,5.72,0,0,0,0-1.05c-.65-2.72-1.22-5.47-2-8.16-15.21-52.16-48-88.88-98-109.66-32.81-13.63-67.12-16.09-101.84-9.14-48.06,9.62-85.18,35.66-111.19,77.11-21.75,34.68-28.36,72.69-23,113,4.11,31,15.91,58.91,36.3,82.48,43.15,49.87,97.86,69.49,162.83,58.37,33.74-5.77,61.42-23.08,83.39-49.37,3.56-4.26,6.83-8.78,10.71-13.79v61.52h45c.06-1,.15-1.84.15-2.66q0-66.36.05-132.72C3606.4,3172.4,3605.76,3171.67,3603.41,3171.69Z" transform="translate(-113.1 -106)"/><path class="cls-3" d="M3077.58,3083.55c-1.31-21.36-11.66-37.38-29.83-48.3-11.2-6.73-23.55-8.27-36.39-7-17.89,1.79-32,10.08-42.08,24.85-7.65,11.17-10,23.91-10,37.21q0,29.52,0,59v3.17h2.91c16,.15,31.83,1.14,47.5,4.41,23.32,4.87,44.53,14,62.2,30.4a64.6,64.6,0,0,1,5,5.87c.36-.23.72-.46,1.07-.7v-3.24q0-40.16,0-80.31C3078,3100.51,3078.1,3092,3077.58,3083.55Z" transform="translate(-113.1 -106)"/><path class="cls-3" d="M3129,3090.87c0-12.15-1.07-24.21-4.37-36-9-32-28.37-55.07-59-68-26.34-11.13-53.65-11.95-81-4.51-28.81,7.82-50.32,25.18-64.1,51.82-9.12,17.64-12.28,36.63-12.29,56.25q-.06,108.45,0,216.89c0,1,.08,2,.13,2.92h51V3199.72c15.28-.25,30.26-.09,45,3.31,35.83,8.25,59.24,29.8,69.48,65.3,3.48,12,4.19,24.39,4.16,36.82,0,1.73,0,3.45,0,5.19H3129v-3.14Q3129,3199,3129,3090.87Zm-51,98.44v3.24c-.35.24-.71.47-1.07.7a64.6,64.6,0,0,0-5-5.87c-17.67-16.38-38.88-25.53-62.2-30.4-15.67-3.27-31.55-4.26-47.5-4.41h-2.91v-3.17q0-29.52,0-59c0-13.3,2.38-26,10-37.21,10.12-14.77,24.19-23.06,42.08-24.85,12.84-1.3,25.19.24,36.39,7,18.17,10.92,28.52,26.94,29.83,48.3.52,8.46.37,17,.38,25.45Q3078,3149.16,3078,3189.31Z" transform="translate(-113.1 -106)"/><path class="cls-3" d="M2720.1,2977.61c-20.47.14-40.56,2.76-60.1,9.15-32,10.47-58.29,28.56-76.73,57.2a3.44,3.44,0,0,1-.68.61c-2.77-3.81-5.29-7.6-8.15-11.12-20.11-24.72-46.13-40.2-76.49-49-26.06-7.51-52.77-7.21-79.49-6.83-.17,0-.33.15-.66.3v332.21h50.26V3028.41c7.5,1,14.69,1.44,21.68,2.85,22.18,4.45,39.94,15.76,52.33,35,10.52,16.31,15.2,34.45,15.48,53.6.42,28.8.16,57.62.19,86.43v3.85h3.54c14.31,0,28.62-.07,42.92.06,2.69,0,3.54-.65,3.53-3.44-.1-26.25-.27-52.51.05-78.75a185.14,185.14,0,0,1,2.45-28.52A84.91,84.91,0,0,1,2631,3056c12.72-14.12,28.73-22.32,47.36-25.39,6.2-1,12.52-1.27,19.14-1.9v281.48H2747V2977.6C2737.89,2977.6,2729,2977.55,2720.1,2977.61Z" transform="translate(-113.1 -106)"/><path class="cls-3" d="M2197.35,3085.07c0,78.19-.06,147-.06,225.18h59.95V3075.87C2237.1,3075.87,2217.25,3085.07,2197.35,3085.07Z" transform="translate(-113.1 -106)"/><path class="cls-3" d="M2197.29,2977.5c0,14.15.06,38.55.06,52.68,20.06,0,39.83-10.27,59.89-10.27V2977.5Z" transform="translate(-113.1 -106)"/><path class="cls-3" d="M2006.24,2977.5q2.13,50.3,4.25,100.23h36.13c1.26-33.47,2.51-66.78,3.77-100.23Z" transform="translate(-113.1 -106)"/><path class="cls-3" d="M1823.86,3076.75c-2.11-20.8-12.88-35.58-31.34-44.91-12.56-6.35-26.13-8.1-40-8.16-16.11-.06-32.23,0-48.34,0-.92,0-1.84.08-2.88.13v169.31c1-.84,1.73-1.45,2.47-2,6.12-4.45,11.89-9.54,18.45-13.2,14.37-8,29.12-15.37,43.76-22.91,10.35-5.32,20.89-10.28,30.27-17.31,10.42-7.81,19.07-17,23.89-29.37C1824.14,3098.15,1825,3087.55,1823.86,3076.75Z" transform="translate(-113.1 -106)"/><path class="cls-3" d="M1883,3256c-8.2-33.78-27.5-58.53-59.65-72.64-4-1.76-8.22-3.11-12.62-4.76,1.06-.64,1.86-1.11,2.65-1.62,6.9-4.48,14-8.65,20.67-13.51,12.83-9.41,23.55-20.79,30.79-35.17,9.89-19.63,12-40.59,9.47-62-3.28-27.82-17.19-49.56-39.94-65.66-22.58-16-48.3-22.53-75.46-23-34.76-.63-69.55-.18-104.33-.2h-2.42v332.8h49c0-1.34,0-2.55,0-3.75.34-11.64-.06-23.37,1.21-34.91a62,62,0,0,1,22.57-42c13.31-11.09,28.93-15.15,46-14.83,37.21.71,61.73,27.94,64.18,61.71.74,10.19.41,20.46.57,30.69,0,1,0,2,0,3h50.26c0-6.87-.07-13.58,0-20.29C1886.06,3278.53,1885.65,3267.16,1883,3256Zm-86.69-118.34c-9.38,7-19.92,12-30.27,17.31-14.64,7.54-29.39,14.88-43.76,22.91-6.56,3.66-12.33,8.75-18.45,13.2-.74.54-1.43,1.15-2.47,2V3023.8c1-.05,2-.13,2.88-.13,16.11,0,32.23-.05,48.34,0,13.85.06,27.42,1.81,40,8.16,18.46,9.33,29.23,24.11,31.34,44.91,1.1,10.8.28,21.4-3.7,31.58C1815.34,3120.65,1806.69,3129.89,1796.27,3137.7Z" transform="translate(-113.1 -106)"/><path class="cls-3" d="M1429.89,3083.44c-1.31-21.33-11.66-37.35-29.81-48.26-11.19-6.72-23.53-8.26-36.37-7-17.87,1.8-31.93,10.08-42,24.84-7.65,11.16-10,23.89-10,37.18q0,29.51,0,59v3.17h2.91c15.94.15,31.81,1.15,47.47,4.41,23.3,4.87,44.49,14,62.15,30.38a64.46,64.46,0,0,1,5,5.86l1.07-.69v-3.24q0-40.12,0-80.25C1430.25,3100.4,1430.4,3091.9,1429.89,3083.44Z" transform="translate(-113.1 -106)"/><path class="cls-3" d="M1481.27,3090.76c0-12.14-1.06-24.2-4.36-36-9-31.92-28.35-55-59-67.95-26.32-11.12-53.61-11.94-81-4.51-28.79,7.82-50.27,25.16-64,51.78-9.11,17.63-12.27,36.6-12.28,56.21q-.06,108.36,0,216.72c0,1,.09,2,.13,2.93h51V3199.52c15.26-.24,30.23-.08,45,3.31,35.8,8.25,59.19,29.78,69.43,65.25,3.47,12,4.19,24.37,4.15,36.8,0,1.72,0,3.45,0,5.18h51v-3.14Q1481.3,3198.85,1481.27,3090.76Zm-51,98.37v3.24l-1.07.69a64.46,64.46,0,0,0-5-5.86c-17.66-16.37-38.85-25.51-62.15-30.38-15.66-3.26-31.53-4.26-47.47-4.41h-2.91v-3.17q0-29.5,0-59c0-13.29,2.38-26,10-37.18,10.11-14.76,24.17-23,42-24.84,12.84-1.29,25.18.25,36.37,7,18.15,10.91,28.5,26.93,29.81,48.26.51,8.46.36,17,.37,25.44Q1430.34,3149,1430.28,3189.13Z" transform="translate(-113.1 -106)"/><path class="cls-2" d="M1077.79,3172.48c16.14-10.83,28.59-25.06,36.24-43.11,7.84-18.51,9.38-38,7.55-57.71-2.75-29.91-16.91-53.43-41.22-70.76-22.66-16.16-48.52-22.87-75.91-23.29-36.18-.55-72.37-.16-108.55-.17-.73,0-1.46.09-2.3.15v332.55h56.31c0-8.11-.19-15.89.05-23.65.4-13.43,3.21-26.23,10.43-37.85,8.3-13.36,20-23,33.53-30.39,18.12-9.83,36.67-18.86,54.84-28.59C1058.67,3184.35,1068.46,3178.73,1077.79,3172.48Zm-43.79-33c-10.46,6.08-21.26,11.58-32,17.12-13.45,6.94-27.23,13.29-39.54,22.24-4.18,3-8.12,6.45-12.49,9.94V3030.09a18.35,18.35,0,0,1,2.16-.25c17.24,0,34.49-.16,51.72.13,13.25.22,25.91,3.11,37.21,10.48q23.26,15.15,24.14,42.94c.38,11.93-1.37,23.38-7.67,33.83C1051.72,3126.82,1043.49,3133.93,1034,3139.44Z" transform="translate(-113.1 -106)"/><path class="cls-3" d="M2436.65,481.4,2303.93,540a15.92,15.92,0,0,0-4.08,26.53l19.52,17.16a16,16,0,0,0,17,2.61l113-49.89a15.91,15.91,0,0,0,9.49-14.44l.21-25.87A15.92,15.92,0,0,0,2436.65,481.4Z" transform="translate(-113.1 -106)"/><path class="cls-3" d="M2437.36,393.36,2237.5,481.6a15.93,15.93,0,0,0-4.09,26.53l21.58,19a16,16,0,0,0,17,2.61l178-78.62a15.9,15.9,0,0,0,9.49-14.43l.24-28.6A15.93,15.93,0,0,0,2437.36,393.36Z" transform="translate(-113.1 -106)"/><path class="cls-3" d="M2455.65,564.19a15.92,15.92,0,0,0-21.33-9l-75.41,33.29a15.93,15.93,0,0,0-7.76,21.79L2397,700.41c25.49-37.69,45.62-68.54,78.14-84.54Z" transform="translate(-113.1 -106)"/><path class="cls-3" d="M2586.73,911.72,2543.47,797c-6.32,4.44-10.7,11.15-13.77,18.56-11.38,27.56-23.55,55.33-31.33,84l20.75,40.77c8.75,17.19,29.22,25.68,47.09,18.4A36.71,36.71,0,0,0,2586.73,911.72Z" transform="translate(-113.1 -106)"/><path class="cls-3" d="M2287.88,387.63c18.79,8.35,40.27-4.05,43.57-26.53-8.84.37-40.17,12.08-45,16.19C2281.07,381.78,2281,384.57,2287.88,387.63Z" transform="translate(-113.1 -106)"/><path class="cls-3" d="M2378.27,294.37c-7.65,12.47-11.3,25.48-25,31.81,10.71-39.07,2-71.29-28.16-97.06-10.81-9.22-23.84-13.49-37.34-16.9-28.94-7.32-53.39-21-69.32-47.69-4.59-7.67-3.54-17.23-10.78-25.55a125.72,125.72,0,0,0-14.88,37.14c-6.45,29-6.26,56.39.89,82.07,3.33,11.95,14.63,29.09,35.46,63.94,1.7,2.84,3.12,5.19,4.08,6.77-23,.72-38.67-13-53.73-28.37-.46,12.6.3,42.43,20.13,69.14,26.94,36.29,72.49,63.54,129.05,39.18,19.77-8.52,39.43-26.63,49.21-67.16A106.75,106.75,0,0,0,2378.27,294.37Zm-90.39,93.26c-6.9-3.06-6.81-5.85-1.48-10.34,4.88-4.11,36.21-15.82,45-16.19C2328.15,383.58,2306.67,396,2287.88,387.63Z" transform="translate(-113.1 -106)"/><g id="Anneaux"><path class="cls-4" d="M2103.83,3984.67q0,6.06-.57,12a124.76,124.76,0,0,1-92.1,108.54q-.17-2.91-.16-5.86a102.82,102.82,0,0,1,1.37-16.85,103.18,103.18,0,0,0,70.05-97.81q0-3-.16-5.86a103.26,103.26,0,1,0-103.1,109.12,104.86,104.86,0,0,0,11-.58c-.37,3.94-.57,7.94-.57,12,0,3.21.13,6.4.36,9.55-3.55.3-7.14.46-10.78.46a124.67,124.67,0,1,1,124.31-134.22C2103.71,3978.27,2103.83,3981.46,2103.83,3984.67Z" transform="translate(-113.1 -106)"/><path class="cls-5" d="M2114.25,4202.59a103.26,103.26,0,0,1-103.09-97.4,123.69,123.69,0,0,1-21.22,3.69,124.68,124.68,0,0,0,248.62.08,124.42,124.42,0,0,1-21.21-3.73A103.27,103.27,0,0,1,2114.25,4202.59Z" transform="translate(-113.1 -106)"/><path class="cls-5" d="M2082.42,3984.67a103.93,103.93,0,0,1-1.37,16.85,103.39,103.39,0,0,0-68.68,81,102.88,102.88,0,0,1-22.22,4.87,124.78,124.78,0,0,1,92.11-108.54Q2082.42,3981.72,2082.42,3984.67Z" transform="translate(-113.1 -106)"/><path class="cls-5" d="M2238.36,4087.42a102.15,102.15,0,0,1-22.21-4.93,103.23,103.23,0,0,0-101.9-86.42,105,105,0,0,0-11,.58q.57-5.91.57-12c0-3.21-.12-6.4-.36-9.55,3.56-.3,7.15-.46,10.78-.46s7.41.16,11.05.48a123.46,123.46,0,0,1,21.21,3.74A124.74,124.74,0,0,1,2238.36,4087.42Z" transform="translate(-113.1 -106)"/><path class="cls-5" d="M2011,4099.33q0,3,.16,5.86a123.69,123.69,0,0,1-21.22,3.69c-.23-3.15-.36-6.34-.36-9.55,0-4,.2-8,.57-12a102.88,102.88,0,0,0,22.22-4.87A102.82,102.82,0,0,0,2011,4099.33Z" transform="translate(-113.1 -106)"/><path class="cls-6" d="M2217.51,4099.33q0,3-.16,5.9a124.76,124.76,0,0,1-91.85-108.55,102.87,102.87,0,0,1,22.21,4.93,103.41,103.41,0,0,0,68.44,80.88A104.94,104.94,0,0,1,2217.51,4099.33Z" transform="translate(-113.1 -106)"/><path class="cls-6" d="M2261.13,4087.39a104,104,0,0,1-22.77,0q.55,5.88.56,11.91,0,4.86-.36,9.63,5.46.48,11.05.48t11.31-.51q-.36-4.73-.36-9.56Q2260.56,4093.31,2261.13,4087.39Z" transform="translate(-113.1 -106)"/><path class="cls-6" d="M2374.28,3984.77c0,4-.2,8-.57,12a124.79,124.79,0,0,1-91.58,108.42c-.1-1.92-.16-3.85-.16-5.79a104.31,104.31,0,0,1,1.39-17,103.07,103.07,0,0,0,69.5-97.62c0-1.94-.05-3.87-.16-5.79a103.26,103.26,0,0,0-206.19-.1,123.46,123.46,0,0,0-21.21-3.74,124.68,124.68,0,0,1,248.61.06C2374.15,3978.36,2374.28,3981.55,2374.28,3984.77Z" transform="translate(-113.1 -106)"/><path class="cls-6" d="M2238.92,4099.33q0,4.86-.36,9.63a124.42,124.42,0,0,1-21.21-3.73q.17-2.92.16-5.9a104.94,104.94,0,0,0-1.36-16.84,102.15,102.15,0,0,0,22.21,4.93Q2238.92,4093.3,2238.92,4099.33Z" transform="translate(-113.1 -106)"/><path class="cls-7" d="M2509.33,4087.37a103,103,0,0,1-22.23-5,103.43,103.43,0,0,0-113.39-85.62c.37-3.94.57-7.93.57-12,0-3.22-.13-6.41-.37-9.57q5.6-.49,11.32-.5t11.29.5a124.52,124.52,0,0,1,112.81,112.17Z" transform="translate(-113.1 -106)"/><path class="cls-7" d="M2385.23,4202.63a103.26,103.26,0,0,1-103.1-97.47,124.46,124.46,0,0,1-21.21,3.77,124.68,124.68,0,0,0,248.62,0,123.5,123.5,0,0,1-21.21-3.78A103.27,103.27,0,0,1,2385.23,4202.63Z" transform="translate(-113.1 -106)"/><path class="cls-7" d="M2352.86,3984.77a104.32,104.32,0,0,1-1.38,17,103.41,103.41,0,0,0-68.12,80.64,102.42,102.42,0,0,1-22.23,5A124.78,124.78,0,0,1,2352.7,3979C2352.81,3980.9,2352.86,3982.83,2352.86,3984.77Z" transform="translate(-113.1 -106)"/><path class="cls-7" d="M2282,4099.37c0,1.94.06,3.87.16,5.79a124.46,124.46,0,0,1-21.21,3.77q-.36-4.73-.36-9.56,0-6.06.57-12a102.42,102.42,0,0,0,22.23-5A104.31,104.31,0,0,0,2282,4099.37Z" transform="translate(-113.1 -106)"/><path class="cls-8" d="M2645.51,3984.74a124.68,124.68,0,0,1-124.67,124.68c-3.81,0-7.58-.18-11.3-.51q.36-4.72.36-9.54c0-4-.2-8-.57-12A103.26,103.26,0,1,0,2417.74,3979a124.77,124.77,0,0,0-21.22-3.78,124.68,124.68,0,0,1,249,9.54Z" transform="translate(-113.1 -106)"/><path class="cls-8" d="M2488.49,4099.37c0,1.93-.06,3.85-.16,5.76a124.75,124.75,0,0,1-91.59-108.39,103,103,0,0,1,22.23,5,103.4,103.4,0,0,0,68.13,80.61A104.87,104.87,0,0,1,2488.49,4099.37Z" transform="translate(-113.1 -106)"/><path class="cls-8" d="M2509.9,4099.37q0,4.81-.36,9.54a123.5,123.5,0,0,1-21.21-3.78c.1-1.91.16-3.83.16-5.76a104.87,104.87,0,0,0-1.39-17,103,103,0,0,0,22.23,5C2509.7,4091.32,2509.9,4095.32,2509.9,4099.37Z" transform="translate(-113.1 -106)"/></g></svg>